<svg id="svg" version="1.1" xmlns="http://www.w3.org/2000/svg" xmlns:xlink="http://www.w3.org/1999/xlink" width="400" height="400" viewBox="0, 0, 400,400"><g id="svgg"><path id="path0" d="M131.876 84.742 C 131.134 85.034,16.400 199.540,16.400 199.988 C 16.400 200.124,20.365 204.188,25.212 209.018 C 30.059 213.848,35.684 219.483,37.712 221.539 C 53.596 237.645,202.380 386.231,203.088 386.694 C 203.950 387.259,204.125 387.171,206.697 384.870 C 210.143 381.788,236.463 355.345,240.755 350.653 L 244.000 347.106 244.000 280.740 C 244.000 217.911,243.963 214.360,243.300 214.087 C 241.916 213.519,164.894 213.746,164.320 214.320 C 163.901 214.739,163.800 221.559,163.800 249.320 C 163.800 268.284,163.654 284.025,163.476 284.300 C 162.931 285.142,134.168 285.014,133.843 284.167 C 133.709 283.819,133.600 239.014,133.600 184.600 C 133.600 130.186,133.491 85.381,133.357 85.033 C 133.092 84.343,132.956 84.316,131.876 84.742 " stroke="none" fill="#c1262e" fill-rule="evenodd"></path><path id="path1" d="M183.482 32.411 L 163.564 52.348 163.682 118.674 L 163.800 185.000 203.900 185.102 L 244.000 185.204 244.000 150.835 C 244.000 131.932,244.109 116.181,244.243 115.833 C 244.515 115.125,273.331 114.841,273.765 115.543 C 273.881 115.731,273.993 161.087,274.013 216.334 C 274.032 271.581,274.178 316.863,274.337 316.961 C 274.495 317.059,277.128 314.633,280.188 311.570 C 283.247 308.506,285.772 306.000,285.798 306.000 C 285.976 306.000,391.410 200.371,391.499 200.103 C 391.646 199.662,204.585 12.619,203.914 12.537 C 203.631 12.503,194.437 21.446,183.482 32.411 " stroke="none" fill="#060606" fill-rule="evenodd"></path><path id="path2" d="M0.000 200.000 L 0.000 400.000 200.000 400.000 L 400.000 400.000 400.000 200.000 L 400.000 0.000 200.000 0.000 L 0.000 0.000 0.000 200.000 M298.403 105.393 C 349.992 156.979,392.250 199.504,392.312 199.893 C 392.432 200.655,275.324 318.089,274.204 318.329 C 273.667 318.444,273.600 307.302,273.600 217.429 L 273.600 116.400 272.700 116.378 C 272.205 116.366,265.950 116.366,258.800 116.379 C 251.650 116.391,245.575 116.401,245.300 116.401 C 244.904 116.400,244.800 123.570,244.800 150.920 C 244.800 177.236,244.686 185.554,244.320 185.920 C 243.734 186.506,163.788 186.627,163.426 186.042 C 163.304 185.845,163.198 155.510,163.189 118.629 L 163.174 51.574 183.087 31.632 C 195.353 19.347,203.309 11.672,203.803 11.645 C 204.368 11.613,232.553 39.545,298.403 105.393 M134.157 82.233 C 134.291 82.581,134.400 128.008,134.400 183.183 L 134.400 283.500 135.650 283.750 C 137.269 284.074,160.227 283.985,161.800 283.649 L 163.000 283.392 163.200 248.196 L 163.400 213.000 203.775 212.898 C 235.811 212.817,244.216 212.900,244.469 213.298 C 244.919 214.007,244.876 347.661,244.425 348.373 C 243.456 349.904,204.511 388.400,203.931 388.400 C 202.984 388.400,15.600 200.902,15.600 199.954 C 15.600 199.241,132.894 81.600,133.605 81.600 C 133.775 81.600,134.024 81.885,134.157 82.233 " stroke="none" fill="#fbfbfb" fill-rule="evenodd"></path><path id="path3" d="M183.393 31.900 L 163.400 51.800 163.297 118.448 C 163.210 174.413,163.281 185.169,163.740 185.550 C 164.141 185.883,174.902 185.977,204.243 185.902 L 244.200 185.800 244.302 151.238 C 244.375 126.511,244.532 116.523,244.851 116.138 C 245.317 115.577,271.555 115.301,272.967 115.843 C 273.542 116.063,273.601 125.312,273.606 216.543 C 273.610 280.219,273.753 317.220,273.997 317.600 C 274.434 318.280,392.000 201.116,392.000 200.000 C 392.000 199.211,204.782 12.000,203.993 12.000 C 203.659 12.000,194.390 20.955,183.393 31.900 M298.020 106.183 C 349.495 157.654,391.561 199.918,391.499 200.103 C 391.410 200.371,285.976 306.000,285.798 306.000 C 285.772 306.000,283.247 308.506,280.188 311.570 C 277.128 314.633,274.495 317.059,274.337 316.961 C 274.178 316.863,274.032 271.581,274.013 216.334 C 273.993 161.087,273.881 115.731,273.765 115.543 C 273.331 114.841,244.515 115.125,244.243 115.833 C 244.109 116.181,244.000 131.932,244.000 150.835 L 244.000 185.204 203.900 185.102 L 163.800 185.000 163.682 118.674 L 163.564 52.348 183.482 32.411 C 194.437 21.446,203.631 12.503,203.914 12.537 C 204.197 12.572,246.545 54.712,298.020 106.183 M132.981 82.733 C 132.771 82.887,132.066 83.601,131.413 84.319 L 130.226 85.626 131.590 84.945 C 132.563 84.460,133.000 84.399,133.111 84.732 C 133.416 85.647,134.000 85.181,134.000 84.024 C 134.000 82.773,133.606 82.273,132.981 82.733 M128.378 87.500 L 127.000 89.000 128.500 87.622 C 129.325 86.863,130.000 86.188,130.000 86.122 C 130.000 85.816,129.662 86.104,128.378 87.500 M124.778 91.100 L 123.400 92.600 124.900 91.222 C 125.725 90.463,126.400 89.788,126.400 89.722 C 126.400 89.416,126.062 89.704,124.778 91.100 M115.596 100.300 L 108.200 107.800 115.700 100.404 C 119.825 96.336,123.200 92.961,123.200 92.904 C 123.200 92.619,122.468 93.332,115.596 100.300 M106.600 109.143 C 106.160 109.538,104.721 111.017,103.401 112.430 C 101.383 114.592,101.526 114.494,104.301 111.809 C 106.116 110.055,107.600 108.570,107.600 108.509 C 107.600 108.301,107.396 108.430,106.600 109.143 M96.393 119.500 L 92.200 123.800 96.500 119.607 C 98.865 117.301,100.800 115.366,100.800 115.307 C 100.800 115.018,100.287 115.506,96.393 119.500 M84.175 131.618 C 80.229 135.588,76.917 138.963,76.815 139.118 C 76.713 139.273,79.998 136.072,84.115 132.004 C 88.232 127.936,91.600 124.561,91.600 124.504 C 91.600 124.190,90.744 125.009,84.175 131.618 M74.475 141.216 C 73.994 141.664,73.600 142.146,73.600 142.285 C 73.600 142.425,74.050 142.117,74.600 141.600 C 75.538 140.719,75.771 140.400,75.475 140.400 C 75.407 140.400,74.957 140.767,74.475 141.216 M68.592 147.300 L 64.600 151.400 68.700 147.408 C 72.508 143.699,72.982 143.200,72.692 143.200 C 72.633 143.200,70.788 145.045,68.592 147.300 M62.175 153.700 L 61.000 155.000 62.300 153.825 C 63.512 152.730,63.784 152.400,63.475 152.400 C 63.406 152.400,62.821 152.985,62.175 153.700 M59.096 156.616 C 58.493 157.175,58.000 157.749,58.000 157.891 C 58.000 158.033,58.540 157.632,59.200 157.000 C 60.303 155.944,60.572 155.600,60.296 155.600 C 60.239 155.600,59.699 156.057,59.096 156.616 M52.593 163.300 L 48.200 167.800 52.700 163.407 C 55.175 160.991,57.200 158.966,57.200 158.907 C 57.200 158.618,56.674 159.120,52.593 163.300 M36.593 179.300 L 32.200 183.800 36.700 179.407 C 40.880 175.326,41.382 174.800,41.093 174.800 C 41.034 174.800,39.009 176.825,36.593 179.300 M30.378 185.500 L 29.000 187.000 30.500 185.622 C 31.896 184.338,32.184 184.000,31.878 184.000 C 31.812 184.000,31.137 184.675,30.378 185.500 M27.800 187.943 C 27.360 188.338,25.921 189.817,24.601 191.230 C 22.583 193.392,22.726 193.294,25.501 190.609 C 27.316 188.855,28.800 187.370,28.800 187.309 C 28.800 187.101,28.596 187.230,27.800 187.943 M19.387 196.500 L 17.000 199.000 19.500 196.613 C 20.875 195.299,22.000 194.174,22.000 194.113 C 22.000 193.817,21.605 194.178,19.387 196.500 M16.173 199.644 C 16.017 199.895,16.831 200.982,18.044 202.144 L 20.190 204.200 18.248 202.138 C 17.179 201.004,16.427 199.879,16.576 199.638 C 16.725 199.397,16.757 199.200,16.647 199.200 C 16.537 199.200,16.324 199.400,16.173 199.644 M21.983 206.100 C 22.964 207.145,23.819 208.000,23.883 208.000 C 24.184 208.000,23.866 207.641,22.100 205.983 L 20.200 204.200 21.983 206.100 M28.383 212.500 C 29.364 213.545,30.219 214.400,30.283 214.400 C 30.584 214.400,30.266 214.041,28.500 212.383 L 26.600 210.600 28.383 212.500 M163.867 213.867 C 163.720 214.013,163.634 215.678,163.675 217.567 L 163.749 221.000 163.975 217.616 C 164.187 214.432,164.259 214.217,165.200 213.956 L 166.200 213.680 165.167 213.640 C 164.598 213.618,164.013 213.720,163.867 213.867 M237.905 213.883 C 238.402 213.979,239.122 213.975,239.505 213.875 C 239.887 213.775,239.480 213.696,238.600 213.701 C 237.720 213.705,237.407 213.787,237.905 213.883 M242.000 213.753 C 242.000 213.838,242.450 213.993,243.000 214.098 C 243.550 214.203,244.000 214.134,244.000 213.945 C 244.000 213.755,243.550 213.600,243.000 213.600 C 242.450 213.600,242.000 213.669,242.000 213.753 M35.791 219.943 C 37.545 221.734,39.060 223.200,39.157 223.200 C 39.450 223.200,34.672 218.247,33.600 217.439 C 33.050 217.025,34.036 218.152,35.791 219.943 M49.000 233.194 C 49.880 234.180,50.645 235.065,50.700 235.161 C 50.755 235.256,50.886 235.247,50.992 235.142 C 51.097 235.036,50.332 234.151,49.292 233.175 L 47.401 231.400 49.000 233.194 M53.400 237.600 C 54.483 238.700,55.460 239.600,55.570 239.600 C 55.680 239.600,54.883 238.700,53.800 237.600 C 52.717 236.500,51.740 235.600,51.630 235.600 C 51.520 235.600,52.317 236.500,53.400 237.600 M61.583 245.700 C 62.564 246.745,63.419 247.600,63.483 247.600 C 63.784 247.600,63.466 247.241,61.700 245.583 L 59.800 243.800 61.583 245.700 M65.583 249.700 C 66.564 250.745,67.419 251.600,67.483 251.600 C 67.784 251.600,67.466 251.241,65.700 249.583 L 63.800 247.800 65.583 249.700 M163.778 264.800 C 163.778 271.730,163.833 274.565,163.899 271.100 C 163.966 267.635,163.966 261.965,163.899 258.500 C 163.833 255.035,163.778 257.870,163.778 264.800 M86.000 270.200 C 87.417 271.630,88.667 272.800,88.777 272.800 C 88.887 272.800,87.817 271.630,86.400 270.200 C 84.983 268.770,83.733 267.600,83.623 267.600 C 83.513 267.600,84.583 268.770,86.000 270.200 M93.000 277.200 C 93.859 278.080,94.652 278.800,94.762 278.800 C 94.872 278.800,94.259 278.080,93.400 277.200 C 92.541 276.320,91.748 275.600,91.638 275.600 C 91.528 275.600,92.141 276.320,93.000 277.200 M95.600 279.725 C 95.600 279.794,96.185 280.379,96.900 281.025 L 98.200 282.200 97.025 280.900 C 95.930 279.688,95.600 279.416,95.600 279.725 M109.000 293.200 C 109.859 294.080,110.652 294.800,110.762 294.800 C 110.872 294.800,110.259 294.080,109.400 293.200 C 108.541 292.320,107.748 291.600,107.638 291.600 C 107.528 291.600,108.141 292.320,109.000 293.200 M112.600 296.800 C 113.459 297.680,114.252 298.400,114.362 298.400 C 114.472 298.400,113.859 297.680,113.000 296.800 C 112.141 295.920,111.348 295.200,111.238 295.200 C 111.128 295.200,111.741 295.920,112.600 296.800 M117.200 301.325 C 117.200 301.394,117.785 301.979,118.500 302.625 L 119.800 303.800 118.625 302.500 C 117.530 301.288,117.200 301.016,117.200 301.325 M124.000 308.200 C 125.195 309.410,126.263 310.400,126.373 310.400 C 126.483 310.400,125.595 309.410,124.400 308.200 C 123.205 306.990,122.137 306.000,122.027 306.000 C 121.917 306.000,122.805 306.990,124.000 308.200 M140.400 324.600 C 141.146 325.370,141.847 326.000,141.957 326.000 C 142.067 326.000,141.546 325.370,140.800 324.600 C 140.054 323.830,139.353 323.200,139.243 323.200 C 139.133 323.200,139.654 323.830,140.400 324.600 M144.800 329.000 C 145.546 329.770,146.247 330.400,146.357 330.400 C 146.467 330.400,145.946 329.770,145.200 329.000 C 144.454 328.230,143.753 327.600,143.643 327.600 C 143.533 327.600,144.054 328.230,144.800 329.000 M148.200 332.400 C 149.059 333.280,149.852 334.000,149.962 334.000 C 150.072 334.000,149.459 333.280,148.600 332.400 C 147.741 331.520,146.948 330.800,146.838 330.800 C 146.728 330.800,147.341 331.520,148.200 332.400 M159.800 344.000 C 160.659 344.880,161.452 345.600,161.562 345.600 C 161.672 345.600,161.059 344.880,160.200 344.000 C 159.341 343.120,158.548 342.400,158.438 342.400 C 158.328 342.400,158.941 343.120,159.800 344.000 M240.809 350.522 C 239.163 352.325,238.246 353.440,238.771 353.000 C 241.166 350.990,244.659 347.055,243.900 347.222 C 243.845 347.234,242.454 348.719,240.809 350.522 M164.400 348.525 C 164.400 348.594,164.985 349.179,165.700 349.825 L 167.000 351.000 165.825 349.700 C 164.730 348.488,164.400 348.216,164.400 348.525 M174.400 358.525 C 174.400 358.594,174.985 359.179,175.700 359.825 L 177.000 361.000 175.825 359.700 C 174.730 358.488,174.400 358.216,174.400 358.525 M180.400 364.525 C 180.400 364.594,180.985 365.179,181.700 365.825 L 183.000 367.000 181.825 365.700 C 180.730 364.488,180.400 364.216,180.400 364.525 M198.394 382.507 C 201.141 385.308,203.617 387.600,203.898 387.600 C 204.492 387.600,207.018 385.285,206.734 385.001 C 206.628 384.895,206.026 385.346,205.396 386.004 C 203.822 387.647,204.063 387.775,198.436 382.307 L 193.400 377.414 198.394 382.507 " stroke="none" fill="#747474" fill-rule="evenodd"></path><path id="path4" d="M199.462 15.247 C 197.515 17.201,196.075 18.796,196.262 18.790 C 196.448 18.785,198.122 17.255,199.982 15.390 C 201.842 13.526,203.643 12.000,203.982 12.000 C 204.779 12.000,392.000 199.204,392.000 200.001 C 392.000 201.116,274.434 318.280,273.997 317.600 C 273.672 317.093,273.611 317.113,273.606 317.729 C 273.602 318.172,273.837 318.408,274.204 318.329 C 275.324 318.089,392.432 200.655,392.312 199.893 C 392.126 198.719,204.740 11.592,203.803 11.647 C 203.362 11.672,201.408 13.292,199.462 15.247 M194.582 20.140 C 193.671 21.142,193.546 21.746,194.423 20.911 C 194.936 20.422,195.276 19.945,195.178 19.851 C 195.080 19.758,194.812 19.888,194.582 20.140 M189.619 25.219 C 188.509 26.330,187.600 27.358,187.600 27.505 C 187.600 27.652,188.590 26.795,189.800 25.600 C 191.010 24.405,192.000 23.376,192.000 23.314 C 192.000 22.953,191.425 23.413,189.619 25.219 M186.000 28.800 C 185.493 29.240,185.257 29.600,185.477 29.600 C 185.696 29.600,186.202 29.240,186.600 28.800 C 186.998 28.360,187.234 28.000,187.123 28.000 C 187.013 28.000,186.507 28.360,186.000 28.800 M182.819 32.019 C 181.709 33.130,180.800 34.158,180.800 34.305 C 180.800 34.452,181.790 33.595,183.000 32.400 C 184.210 31.205,185.200 30.176,185.200 30.114 C 185.200 29.753,184.625 30.213,182.819 32.019 M177.818 37.018 C 176.383 38.454,176.545 38.794,178.000 37.400 C 178.660 36.768,179.200 36.194,179.200 36.125 C 179.200 35.796,178.748 36.088,177.818 37.018 M174.283 40.455 C 173.229 41.525,172.509 42.399,172.683 42.397 C 173.093 42.393,176.585 38.844,176.366 38.654 C 176.275 38.575,175.337 39.386,174.283 40.455 M171.018 43.818 C 169.583 45.254,169.745 45.594,171.200 44.200 C 171.860 43.568,172.400 42.994,172.400 42.925 C 172.400 42.596,171.948 42.888,171.018 43.818 M168.200 46.450 C 167.540 47.082,167.107 47.599,167.238 47.600 C 167.631 47.600,169.780 45.645,169.583 45.466 C 169.482 45.375,168.860 45.818,168.200 46.450 M165.862 48.731 C 165.498 49.134,165.200 49.611,165.200 49.793 C 165.200 49.974,165.560 49.707,166.000 49.200 C 166.440 48.693,166.800 48.215,166.800 48.139 C 166.800 47.839,166.495 48.032,165.862 48.731 M163.821 50.777 C 163.434 51.204,163.212 51.789,163.327 52.077 C 163.489 52.480,163.544 52.469,163.568 52.031 C 163.586 51.719,163.898 51.134,164.262 50.731 C 164.626 50.329,164.834 50.000,164.724 50.000 C 164.614 50.000,164.208 50.350,163.821 50.777 M74.448 140.401 C 37.975 176.845,15.600 199.488,15.600 199.954 C 15.600 200.902,202.984 388.400,203.931 388.400 C 204.511 388.400,243.456 349.904,244.425 348.373 C 244.876 347.661,244.919 214.007,244.469 213.298 C 244.216 212.900,235.811 212.817,203.775 212.898 L 163.400 213.000 163.200 248.196 L 163.000 283.392 161.800 283.649 C 160.227 283.985,137.269 284.074,135.650 283.750 L 134.400 283.500 134.400 183.183 C 134.400 87.929,134.350 81.600,133.605 81.600 C 133.435 81.600,106.814 108.061,74.448 140.401 M133.614 183.244 C 133.610 238.550,133.752 284.027,133.930 284.305 C 134.183 284.700,137.435 284.787,148.827 284.705 L 163.400 284.600 163.600 249.200 L 163.800 213.800 203.900 213.698 L 244.000 213.596 244.000 280.761 L 244.000 347.927 224.207 367.763 C 213.320 378.673,204.177 387.600,203.889 387.600 C 203.601 387.600,198.760 382.965,193.133 377.300 C 187.505 371.635,179.728 363.862,175.851 360.026 C 171.973 356.191,168.800 353.036,168.800 353.016 C 168.800 352.790,82.538 266.800,82.311 266.800 C 82.140 266.800,82.000 266.655,82.000 266.478 C 82.000 266.098,59.369 243.462,58.793 243.267 C 58.577 243.193,58.400 243.002,58.400 242.842 C 58.400 242.442,51.127 235.200,50.724 235.200 C 50.546 235.200,50.400 235.042,50.400 234.848 C 50.400 234.654,42.623 226.740,33.118 217.261 L 15.835 200.026 21.106 194.713 C 24.005 191.791,36.749 179.050,49.425 166.400 C 62.101 153.750,72.681 143.189,72.936 142.931 C 78.284 137.523,90.954 124.833,91.485 124.354 C 91.878 123.999,95.388 120.489,99.283 116.554 C 103.179 112.619,111.875 103.910,118.608 97.200 C 125.341 90.490,131.395 84.402,132.061 83.670 C 132.728 82.939,133.352 82.419,133.448 82.514 C 133.543 82.610,133.618 127.938,133.614 183.244 M162.909 85.600 C 162.909 86.590,162.987 86.995,163.082 86.500 C 163.178 86.005,163.178 85.195,163.082 84.700 C 162.987 84.205,162.909 84.610,162.909 85.600 M244.851 116.138 C 244.532 116.523,244.375 126.511,244.302 151.238 L 244.200 185.800 204.243 185.902 C 172.664 185.983,164.159 185.899,163.678 185.502 C 163.178 185.089,163.105 185.106,163.268 185.600 C 163.526 186.380,243.323 186.728,244.257 185.953 C 244.707 185.579,244.800 179.573,244.800 150.951 C 244.800 131.948,244.935 116.400,245.100 116.399 C 268.992 116.339,273.635 116.267,273.160 115.967 C 272.177 115.344,245.375 115.507,244.851 116.138 " stroke="none" fill="#db9196" fill-rule="evenodd"></path></g></svg>